# xmcd
# 
# Track frame offsets:
#     150
#     15773
#     34114
# 
# Disc length: 668
# 
# Revision: 0
# Processed by: cddbd v1.5.2PL0 Copyright (c) Steve Scherf et al.
# Submitted via: fre:ac v1.0.27
# 
DISCID=12029a03
DTITLE=Billy Ray Cyrus - Achhy Breaky Heart
DYEAR=1992
DGENRE=Country
TTITLE0=Achy Breaky Heart
TTITLE1=I'm So Miserable
TTITLE2=Wher`m I Gonna Live
EXTD=
EXTT0=
EXTT1=
EXTT2=
PLAYORDER=
